<?xml version="1.0" encoding="UTF-8"?>
<svg id="Camada_2" data-name="Camada 2" xmlns="http://www.w3.org/2000/svg" viewBox="0 0 2109.11 811.85">
  <defs>
    <style>
      .cls-1 {
        letter-spacing: 0em;
      }

      .cls-2 {
        letter-spacing: 0em;
      }

      .cls-3 {
        letter-spacing: .01em;
      }

      .cls-4 {
        font-family: Barlow-Bold, Barlow;
        font-weight: 700;
      }

      .cls-4, .cls-5 {
        fill: #fff;
      }

      .cls-6 {
        font-size: 350.16px;
      }

      .cls-7 {
        font-size: 421.96px;
      }

      .cls-8 {
        letter-spacing: -.02em;
      }

      .cls-9 {
        letter-spacing: .01em;
      }
    </style>
  </defs>
  <g id="Layer_1" data-name="Layer 1">
    <g>
      <g>
        <text class="cls-4" transform="translate(550.92 358.66)"><tspan class="cls-7"><tspan class="cls-9" x="0" y="0">R</tspan><tspan class="cls-8" x="265.41" y="0">A</tspan><tspan class="cls-1" x="539.69" y="0">CHEL</tspan></tspan><tspan class="cls-6"><tspan x="0" y="374.4">A</tspan><tspan class="cls-2" x="234.95" y="374.4">N</tspan><tspan x="465.7" y="374.4">D</tspan><tspan class="cls-3" x="682.1" y="374.4">R</tspan><tspan x="902.35" y="374.4">ADE</tspan></tspan></text>
        <g>
          <path class="cls-5" d="M1547.68,645.15l-9.31-13.35c-.39.04-.98.07-1.76.07h-10.29v13.28h-8.46v-45.58h18.75c3.95,0,7.39.65,10.32,1.95,2.93,1.3,5.18,3.17,6.74,5.6,1.56,2.43,2.34,5.32,2.34,8.66s-.84,6.38-2.51,8.86c-1.67,2.47-4.07,4.32-7.19,5.53l10.48,14.98h-9.12ZM1544.61,609.07c-1.91-1.56-4.71-2.34-8.4-2.34h-9.9v18.17h9.9c3.69,0,6.49-.79,8.4-2.38,1.91-1.58,2.87-3.83,2.87-6.74s-.96-5.14-2.87-6.71Z"/>
          <path class="cls-5" d="M1534.98,666.8c-11.87,0-23.03-4.62-31.42-13.02s-13.02-19.55-13.02-31.42,4.62-23.03,13.02-31.42,19.55-13.02,31.42-13.02,23.03,4.62,31.42,13.02,13.02,19.55,13.02,31.42-4.62,23.03-13.02,31.42-19.55,13.02-31.42,13.02ZM1534.98,585.14c-20.52,0-37.22,16.7-37.22,37.22s16.7,37.22,37.22,37.22,37.22-16.7,37.22-37.22-16.7-37.22-37.22-37.22Z"/>
        </g>
      </g>
      <g>
        <path class="cls-5" d="M478.01,235.37c0,31.49-6.43,61.47-18.06,88.71-25.25,59.24-75.07,105.51-136.64,126.05-37.71-32.63-65.57-76.32-78.5-126.05h5.07c41.99,0,76.04-34.05,76.04-76.04s-32.37-74.35-72.91-75.98c.01-.03.01-.05.03-.08H0V9.03h251.68c5.63,0,11.2.21,16.72.6,36.1,2.64,69.87,13.75,99.29,31.36,48.48,29,85.2,75.62,101.32,131,5.85,20.11,8.99,41.37,8.99,63.38Z"/>
        <path class="cls-5" d="M478.01,593.75v153.91c-243.49-4.32-443.35-187.4-473.94-423.58h155.81c9.59,49.99,30.38,96.01,59.65,135.34,59.03,79.39,152.61,131.56,258.48,134.32Z"/>
      </g>
    </g>
  </g>
</svg>