<?xml version="1.0" encoding="UTF-8"?>
<svg id="Camada_2" data-name="Camada 2" xmlns="http://www.w3.org/2000/svg" viewBox="0 0 410.28 522.04">
  <defs>
    <style>
      .cls-1 {
        fill: #333;
      }

      .cls-2 {
        fill: #1d70b7;
      }
    </style>
  </defs>
  <g id="Camada_1-2" data-name="Camada 1">
    <g>
      <path class="cls-2" d="M375.79,386.89v-.08h-130.63c-3.13,0-6.27-.25-9.34-.86-.02,0-.03,0-.05,0-63.95-12.06-111.39-56.48-111.39-109.44,0-10.43,1.85-20.54,5.29-30.13.02-.03.02-.05.03-.07.29-.81.59-1.63.92-2.43,2.65-6.53,6.62-12.64,11.91-17.93l48.46,48.46,14.13-52.74,9.6-35.81,3.94-14.69,7.82-29.16,12.11-45.2,4.44-16.62-61.62,16.5-.36.1-103.64,27.77-28.62,7.67,28.62,28.62,19.93,19.91-19.93,19.93c-17.56,17.56-26.33,40.57-26.33,63.59,0,12.23,2.48,24.46,7.43,35.86.02.02.02.05.03.07,9.69,26.02,30.19,50.19,58.32,67.1,8.04,4.85,16.71,9.11,25.94,12.64,7.5,2.87,15.03,5.16,22.54,6.85H22.16c-5.61-.68-9.96-5.44-9.96-11.23V11.31C12.2,5.07,17.27,0,23.52,0h217.42c.27,0,.53,0,.8.02,73.36.42,132.71,60.03,132.71,133.49,0,19.69-4.26,38.39-11.92,55.23-6.67,14.67-15.93,27.94-27.17,39.18-11.26,11.25-24.53,20.51-39.2,27.16-5.84,2.66-11.89,4.92-18.13,6.72l28.85,28.85,66.32,66.31,29.94,29.94h-27.34Z"/>
      <g>
        <path class="cls-2" d="M1.18,417.79h12.78c8.94,0,12.78,4.16,12.78,12.63v3.37c0,5.65-1.8,9.25-5.65,10.82v.16c4.31,1.33,5.73,5.41,5.73,11.61v9.65c0,2.67.08,4.63.94,6.67h-8.78c-.47-1.41-.78-2.27-.78-6.75v-10.04c0-5.1-1.49-6.75-5.41-6.75h-2.98v23.53H1.18v-54.9ZM12.94,441.32c3.22,0,5.18-1.41,5.18-5.8v-4.24c0-3.92-1.33-5.65-4.39-5.65h-3.92v15.69h3.14Z"/>
        <path class="cls-2" d="M39.46,417.79h11.69l8.94,54.9h-8.63l-1.57-10.9v.16h-9.8l-1.57,10.75h-8l8.94-54.9ZM48.87,454.5l-3.84-27.14h-.16l-3.76,27.14h7.76Z"/>
        <path class="cls-2" d="M63.53,459.99v-29.49c0-8.47,4.39-13.49,12.71-13.49s12.71,5.02,12.71,13.49v5.8h-8.16v-6.35c0-3.61-1.73-5.1-4.31-5.1s-4.31,1.49-4.31,5.1v30.67c0,3.61,1.73,5.02,4.31,5.02s4.31-1.41,4.31-5.02v-8.39h8.16v7.76c0,8.47-4.39,13.49-12.71,13.49s-12.71-5.02-12.71-13.49Z"/>
        <path class="cls-2" d="M94.12,417.79h8.63v22.35h9.25v-22.35h8.63v54.9h-8.63v-24.71h-9.25v24.71h-8.63v-54.9Z"/>
        <path class="cls-2" d="M127.07,417.79h23.53v7.84h-14.9v14.51h11.84v7.84h-11.84v16.86h14.9v7.84h-23.53v-54.9Z"/>
        <path class="cls-2" d="M155.54,417.79h8.63v47.06h14.2v7.84h-22.82v-54.9Z"/>
        <path class="cls-2" d="M201.73,417.79h11.69l8.94,54.9h-8.63l-1.57-10.9v.16h-9.8l-1.57,10.75h-8l8.94-54.9ZM211.14,454.5l-3.84-27.14h-.16l-3.76,27.14h7.76Z"/>
        <path class="cls-2" d="M226.52,417.79h10.82l8.39,32.86h.16v-32.86h7.69v54.9h-8.86l-10.35-40.08h-.16v40.08h-7.69v-54.9Z"/>
        <path class="cls-2" d="M260.01,417.79h13.18c8.63,0,12.86,4.78,12.86,13.57v27.76c0,8.78-4.24,13.57-12.86,13.57h-13.18v-54.9ZM273.03,464.85c2.75,0,4.39-1.41,4.39-5.33v-28.55c0-3.92-1.65-5.33-4.39-5.33h-4.39v39.22h4.39Z"/>
        <path class="cls-2" d="M291.85,417.79h12.78c8.94,0,12.78,4.16,12.78,12.63v3.37c0,5.65-1.8,9.25-5.65,10.82v.16c4.31,1.33,5.73,5.41,5.73,11.61v9.65c0,2.67.08,4.63.94,6.67h-8.78c-.47-1.41-.78-2.27-.78-6.75v-10.04c0-5.1-1.49-6.75-5.41-6.75h-2.98v23.53h-8.63v-54.9ZM303.61,441.32c3.22,0,5.18-1.41,5.18-5.8v-4.24c0-3.92-1.33-5.65-4.39-5.65h-3.92v15.69h3.14Z"/>
        <path class="cls-2" d="M330.13,417.79h11.69l8.94,54.9h-8.63l-1.57-10.9v.16h-9.8l-1.57,10.75h-8l8.94-54.9ZM339.54,454.5l-3.84-27.14h-.16l-3.76,27.14h7.76Z"/>
        <path class="cls-2" d="M354.91,417.79h13.18c8.63,0,12.86,4.78,12.86,13.57v27.76c0,8.78-4.24,13.57-12.86,13.57h-13.18v-54.9ZM367.93,464.85c2.75,0,4.39-1.41,4.39-5.33v-28.55c0-3.92-1.65-5.33-4.39-5.33h-4.39v39.22h4.39Z"/>
        <path class="cls-2" d="M386.75,417.79h23.53v7.84h-14.9v14.51h11.84v7.84h-11.84v16.86h14.9v7.84h-23.53v-54.9Z"/>
      </g>
      <g>
        <path class="cls-1" d="M16.56,522.04c-2.38,0-4.58-.43-6.59-1.3-2.01-.87-3.75-2.05-5.23-3.55-1.48-1.5-2.64-3.27-3.48-5.31s-1.26-4.22-1.26-6.54v-.09c0-2.32.41-4.49,1.24-6.52.83-2.02,1.99-3.8,3.48-5.33,1.49-1.53,3.26-2.74,5.3-3.62,2.04-.88,4.3-1.32,6.77-1.32,1.48,0,2.84.12,4.06.37,1.22.25,2.34.6,3.36,1.04,1.02.45,1.96.98,2.83,1.6.87.62,1.69,1.3,2.46,2.04l-3.66,4.22c-1.3-1.21-2.68-2.18-4.13-2.92-1.45-.74-3.11-1.11-4.96-1.11-1.55,0-2.98.3-4.29.9-1.31.6-2.45,1.42-3.41,2.46-.96,1.04-1.7,2.25-2.23,3.64-.53,1.39-.79,2.88-.79,4.45v.09c0,1.58.26,3.07.79,4.48.53,1.41,1.27,2.64,2.23,3.69.96,1.05,2.09,1.88,3.41,2.48,1.31.6,2.74.9,4.29.9,1.98,0,3.68-.38,5.1-1.14,1.42-.76,2.83-1.79,4.22-3.08l3.66,3.71c-.83.9-1.71,1.69-2.62,2.39-.91.7-1.89,1.3-2.95,1.81-1.05.51-2.2.9-3.46,1.16-1.25.26-2.64.39-4.15.39Z"/>
        <path class="cls-1" d="M51.16,522.04c-2.5,0-4.79-.44-6.86-1.32-2.07-.88-3.85-2.08-5.33-3.59-1.48-1.51-2.64-3.29-3.48-5.31-.83-2.03-1.25-4.18-1.25-6.47v-.09c0-2.29.42-4.45,1.25-6.47.83-2.03,2.01-3.8,3.52-5.33,1.51-1.53,3.31-2.74,5.38-3.64,2.07-.9,4.36-1.34,6.86-1.34s4.79.44,6.86,1.32c2.07.88,3.85,2.08,5.33,3.6,1.48,1.51,2.64,3.29,3.48,5.31s1.25,4.18,1.25,6.47v.09c0,2.29-.42,4.45-1.25,6.47s-2.01,3.8-3.52,5.33c-1.52,1.53-3.31,2.75-5.38,3.64-2.07.9-4.36,1.34-6.86,1.34ZM51.25,516.79c1.6,0,3.07-.3,4.41-.9,1.34-.6,2.49-1.42,3.44-2.46.95-1.04,1.7-2.25,2.24-3.64.54-1.39.81-2.88.81-4.45v-.09c0-1.58-.27-3.07-.81-4.48-.54-1.41-1.29-2.63-2.26-3.66-.97-1.04-2.13-1.86-3.49-2.48-1.36-.62-2.83-.93-4.43-.93s-3.07.3-4.41.9c-1.34.6-2.49,1.42-3.44,2.46s-1.7,2.25-2.24,3.64-.81,2.88-.81,4.45v.09c0,1.58.27,3.07.81,4.48.54,1.41,1.29,2.63,2.26,3.67.97,1.04,2.13,1.86,3.49,2.48,1.35.62,2.83.93,4.43.93Z"/>
        <path class="cls-1" d="M75.1,489.01h5.28l17.36,22.45v-22.45h5.66v32.47h-4.77l-17.87-23.1v23.1h-5.66v-32.47Z"/>
        <path class="cls-1" d="M119.72,494.3h-10.3v-5.29h26.35v5.29h-10.3v27.18h-5.75v-27.18Z"/>
        <path class="cls-1" d="M141.8,489.01h24.03v5.15h-18.37v8.35h16.28v5.15h-16.28v8.67h18.6v5.15h-24.26v-32.47Z"/>
        <path class="cls-1" d="M172.87,489.01h6.08l9.88,15.35,9.88-15.35h6.08v32.47h-5.66v-23.29l-10.25,15.31h-.19l-10.16-15.21v23.19h-5.66v-32.47Z"/>
        <path class="cls-1" d="M213.13,489.01h12.8c1.89,0,3.59.25,5.13.76,1.53.51,2.83,1.25,3.9,2.2,1.07.96,1.89,2.1,2.46,3.43.57,1.33.86,2.81.86,4.45v.09c0,1.83-.34,3.43-1.02,4.8-.68,1.38-1.61,2.53-2.79,3.46s-2.56,1.63-4.14,2.11-3.27.72-5.07.72h-6.46v10.44h-5.66v-32.47ZM225.45,505.89c2.17,0,3.89-.54,5.14-1.63s1.88-2.48,1.88-4.19v-.09c0-1.92-.64-3.38-1.91-4.35-1.27-.98-2.98-1.47-5.12-1.47h-6.66v11.74h6.66Z"/>
        <path class="cls-1" d="M244.12,489.01h5.66v27.32h17.07v5.15h-22.73v-32.47Z"/>
        <path class="cls-1" d="M284.33,488.78h5.29l14.29,32.7h-6.03l-3.29-7.84h-15.35l-3.34,7.84h-5.84l14.29-32.7ZM292.5,508.58l-5.61-12.99-5.57,12.99h11.18Z"/>
        <path class="cls-1" d="M309.47,489.01h12.11c2.54,0,4.86.41,6.98,1.23,2.12.82,3.94,1.96,5.47,3.41,1.53,1.45,2.71,3.16,3.55,5.12.83,1.96,1.25,4.09,1.25,6.38v.09c0,2.29-.42,4.42-1.25,6.4-.83,1.98-2.02,3.7-3.55,5.15-1.53,1.45-3.36,2.6-5.47,3.43s-4.45,1.25-6.98,1.25h-12.11v-32.47ZM321.53,516.33c1.7,0,3.25-.27,4.64-.81,1.39-.54,2.57-1.3,3.55-2.28.97-.98,1.73-2.14,2.27-3.49.54-1.35.81-2.82.81-4.4v-.09c0-1.58-.27-3.06-.81-4.42-.54-1.37-1.3-2.54-2.27-3.52-.97-.98-2.16-1.75-3.55-2.31s-2.94-.84-4.64-.84h-6.4v22.17h6.4Z"/>
        <path class="cls-1" d="M361.24,522.04c-2.5,0-4.79-.44-6.87-1.32-2.07-.88-3.85-2.08-5.33-3.59-1.48-1.51-2.64-3.29-3.48-5.31s-1.25-4.18-1.25-6.47v-.09c0-2.29.42-4.45,1.25-6.47s2.01-3.8,3.53-5.33c1.51-1.53,3.31-2.74,5.38-3.64,2.07-.9,4.36-1.34,6.87-1.34s4.79.44,6.87,1.32c2.07.88,3.85,2.08,5.33,3.6,1.48,1.51,2.64,3.29,3.48,5.31s1.25,4.18,1.25,6.47v.09c0,2.29-.42,4.45-1.25,6.47s-2.01,3.8-3.53,5.33c-1.52,1.53-3.31,2.75-5.38,3.64-2.07.9-4.36,1.34-6.87,1.34ZM361.33,516.79c1.6,0,3.07-.3,4.41-.9,1.34-.6,2.49-1.42,3.44-2.46.95-1.04,1.7-2.25,2.24-3.64.54-1.39.81-2.88.81-4.45v-.09c0-1.58-.27-3.07-.81-4.48-.54-1.41-1.29-2.63-2.26-3.66-.97-1.04-2.13-1.86-3.49-2.48-1.35-.62-2.83-.93-4.43-.93s-3.07.3-4.41.9c-1.34.6-2.49,1.42-3.44,2.46-.95,1.04-1.7,2.25-2.24,3.64-.54,1.39-.81,2.88-.81,4.45v.09c0,1.58.27,3.07.81,4.48.54,1.41,1.29,2.63,2.26,3.67s2.13,1.86,3.49,2.48c1.36.62,2.83.93,4.43.93Z"/>
        <path class="cls-1" d="M396.58,521.94c-2.5,0-4.9-.43-7.19-1.28-2.29-.85-4.41-2.16-6.35-3.92l3.43-4.08c1.58,1.36,3.17,2.41,4.78,3.13,1.61.73,3.43,1.09,5.47,1.09,1.76,0,3.16-.37,4.2-1.11s1.55-1.73,1.55-2.97v-.09c0-.59-.1-1.11-.3-1.55s-.57-.87-1.12-1.28c-.54-.4-1.29-.77-2.23-1.11s-2.18-.68-3.7-1.02c-1.74-.4-3.28-.86-4.63-1.37-1.35-.51-2.48-1.13-3.4-1.86-.91-.73-1.61-1.62-2.09-2.67-.48-1.05-.72-2.32-.72-3.8v-.09c0-1.39.28-2.67.83-3.83.55-1.16,1.31-2.15,2.28-2.97.97-.82,2.13-1.46,3.49-1.92s2.84-.7,4.45-.7c2.38,0,4.52.35,6.42,1.04,1.9.7,3.69,1.71,5.36,3.04l-3.06,4.31c-1.48-1.08-2.95-1.91-4.41-2.48-1.45-.57-2.92-.86-4.41-.86-1.67,0-2.97.37-3.9,1.11s-1.39,1.65-1.39,2.74v.09c0,.62.11,1.17.33,1.65.22.48.61.91,1.19,1.3.57.39,1.36.75,2.37,1.09,1.01.34,2.29.7,3.84,1.07,1.7.43,3.22.91,4.53,1.44,1.32.53,2.41,1.17,3.28,1.93s1.53,1.64,1.98,2.64.67,2.17.67,3.5v.09c0,1.52-.28,2.88-.85,4.08s-1.36,2.23-2.37,3.06-2.23,1.47-3.65,1.9c-1.42.43-2.98.65-4.68.65Z"/>
      </g>
    </g>
  </g>
</svg>